<?xml version="1.0" standalone="no"?>
<!DOCTYPE svg PUBLIC "-//W3C//DTD SVG 20010904//EN"
 "http://www.w3.org/TR/2001/REC-SVG-20010904/DTD/svg10.dtd">
<svg version="1.0" xmlns="http://www.w3.org/2000/svg"
 width="512.000000pt" height="512.000000pt" viewBox="0 0 512.000000 512.000000"
 preserveAspectRatio="xMidYMid meet">

<g transform="translate(0.000000,512.000000) scale(0.100000,-0.100000)"
fill="#000000" stroke="none">
<path d="M2055 5103 c-290 -62 -519 -294 -579 -585 -13 -63 -16 -151 -16 -468
l0 -390 -390 0 c-317 0 -405 -3 -467 -16 -297 -61 -527 -290 -587 -586 -23
-114 -23 -883 0 -996 50 -241 221 -449 450 -545 122 -51 180 -57 604 -57 l390
0 0 -390 c0 -424 6 -482 57 -605 75 -178 230 -333 409 -408 123 -52 178 -57
634 -57 447 0 505 5 624 51 172 68 333 223 412 398 56 125 57 134 61 589 l4
422 390 0 c318 0 404 3 467 16 277 57 495 262 579 543 25 86 32 916 8 1034
-60 298 -291 530 -587 591 -63 13 -149 16 -468 16 l-390 0 0 390 c0 319 -3
405 -16 468 -61 295 -291 525 -586 586 -109 23 -897 22 -1003 -1z m947 -294
c171 -36 310 -175 347 -347 8 -37 11 -307 11 -902 l0 -850 -890 0 c-873 0
-892 0 -930 -20 -26 -13 -47 -34 -60 -60 -19 -37 -20 -58 -20 -455 l0 -415
-375 0 c-241 0 -393 4 -427 11 -172 37 -310 175 -347 347 -15 72 -15 811 0
884 36 171 175 310 347 347 37 8 330 11 993 11 922 0 941 0 979 20 45 23 80
80 80 130 0 50 -35 107 -80 130 -37 19 -58 20 -455 20 l-415 0 0 375 c0 236 4
393 11 427 18 87 58 158 123 223 64 64 127 100 211 121 67 16 820 19 897 3z
m1460 -1460 c171 -36 310 -175 347 -347 15 -72 15 -811 0 -884 -16 -77 -74
-180 -129 -232 -56 -53 -144 -99 -218 -115 -37 -8 -335 -11 -993 -11 -922 0
-941 0 -979 -20 -45 -23 -80 -80 -80 -130 0 -50 35 -107 80 -130 37 -19 58
-20 455 -20 l415 0 0 -375 c0 -235 -4 -394 -11 -427 -16 -77 -74 -180 -129
-232 -56 -53 -144 -99 -218 -115 -73 -15 -812 -15 -884 0 -172 37 -310 175
-347 347 -8 37 -11 307 -11 902 l0 850 890 0 c873 0 892 0 930 20 26 13 47 34
60 60 19 37 20 58 20 455 l0 415 375 0 c236 0 393 -4 427 -11z"/>
<path d="M2138 4349 c-43 -22 -78 -81 -78 -129 0 -50 35 -107 80 -130 21 -11
53 -20 70 -20 76 0 150 74 150 150 0 50 -35 107 -80 130 -49 25 -94 25 -142
-1z"/>
<path d="M2838 1029 c-43 -22 -78 -81 -78 -129 0 -76 74 -150 150 -150 76 0
150 74 150 150 0 50 -35 107 -80 130 -49 25 -94 25 -142 -1z"/>
</g>
</svg>
